<svg width="171" height="34" viewBox="0 0 171 34" fill="none" xmlns="http://www.w3.org/2000/svg">
  	<path class="fill-theme-svg" d="M17,31.87c1.11,0,2.68-.95,4.11-3.8a19.91,19.91,0,0,0,1.6-4.7H11.29a19.91,19.91,0,0,0,1.6,4.7C14.32,30.92,15.89,31.87,17,31.87ZM10.91,21.25H23.09A31.82,31.82,0,0,0,23.37,17a31.82,31.82,0,0,0-.28-4.25H10.91A31,31,0,0,0,10.91,21.25Zm.38-10.63H22.71a20,20,0,0,0-1.6-4.69c-1.43-2.85-3-3.81-4.11-3.81s-2.68,1-4.11,3.81A20,20,0,0,0,11.29,10.62Zm13.94,2.13A33.57,33.57,0,0,1,25.5,17a33.57,33.57,0,0,1-.27,4.25h6a14.54,14.54,0,0,0,0-8.5Zm5.22-2.13a15,15,0,0,0-8.7-7.72,19.55,19.55,0,0,1,3.14,7.72Zm-21.33,0A19.55,19.55,0,0,1,12.26,2.9a14.87,14.87,0,0,0-8.7,7.72ZM2.75,12.75a14.88,14.88,0,0,0,0,8.5h6a33.58,33.58,0,0,1,0-8.5Zm19,18.35a15,15,0,0,0,8.69-7.73H24.88A19.73,19.73,0,0,1,21.75,31.1Zm-9.5,0a19.79,19.79,0,0,1-3.13-7.73H3.56A14.89,14.89,0,0,0,12.25,31.1ZM17,34A17,17,0,1,1,34,17,17,17,0,0,1,17,34Z" fill="#5B7FFF"/>
  	<path class="fill-dark-light" d="M45.94,13V10.46h12V13H53.43V25h-3V13Zm22.9-2.53h3.08V19.9a5,5,0,0,1-2.87,4.64,7.84,7.84,0,0,1-6.33,0,5,5,0,0,1-2.11-1.86,5.14,5.14,0,0,1-.75-2.78V10.46h3.07v9.18a2.93,2.93,0,0,0,.37,1.48,2.67,2.67,0,0,0,1,1,3.15,3.15,0,0,0,1.56.37,3,3,0,0,0,1.56-.37,2.67,2.67,0,0,0,1-1,2.92,2.92,0,0,0,.36-1.48ZM74.45,25V10.46h5.74A6.16,6.16,0,0,1,83,11a4.16,4.16,0,0,1,1.79,1.66,5,5,0,0,1,.61,2.51,4.83,4.83,0,0,1-.63,2.49A4,4,0,0,1,83,19.29a6.69,6.69,0,0,1-2.86.55H76.27V17.37h3.34a3.83,3.83,0,0,0,1.46-.24,1.76,1.76,0,0,0,.87-.72,2.2,2.2,0,0,0,.29-1.2A2.43,2.43,0,0,0,81.94,14a1.82,1.82,0,0,0-.87-.75A3.7,3.7,0,0,0,79.6,13H77.52V25Zm7.85-6.62L85.92,25h-3.4L79,18.38ZM87.57,25V10.46H93.4a6.61,6.61,0,0,1,2.67.47,3.61,3.61,0,0,1,1.62,1.32,3.48,3.48,0,0,1,.54,1.93,3.26,3.26,0,0,1-.34,1.5A2.83,2.83,0,0,1,97,16.73a3.76,3.76,0,0,1-1.35.58v.14a3.19,3.19,0,0,1,1.56.47,3.34,3.34,0,0,1,1.18,1.21,3.58,3.58,0,0,1,.4,1.87,3.7,3.7,0,0,1-2.25,3.43,6.37,6.37,0,0,1-2.75.53Zm3.08-8.46h2.28a2.7,2.7,0,0,0,1.12-.22,1.88,1.88,0,0,0,.78-.64,1.55,1.55,0,0,0,.29-1,1.6,1.6,0,0,0-.55-1.28A2.38,2.38,0,0,0,93,12.94H90.65Zm0,5.95h2.51A2.87,2.87,0,0,0,95,22a1.64,1.64,0,0,0,.59-1.32,2.09,2.09,0,0,0-.29-1.06,2,2,0,0,0-.83-.73,2.92,2.92,0,0,0-1.27-.26H90.65Zm23.51-4.76a8.49,8.49,0,0,1-.9,4.05,6.31,6.31,0,0,1-2.45,2.54,7.3,7.3,0,0,1-6.94,0,6.3,6.3,0,0,1-2.44-2.55,8.41,8.41,0,0,1-.9-4,8.49,8.49,0,0,1,.9-4,6.3,6.3,0,0,1,2.44-2.55,7.36,7.36,0,0,1,6.94,0,6.33,6.33,0,0,1,2.45,2.55A8.33,8.33,0,0,1,114.16,17.73Zm-3.12,0a6.44,6.44,0,0,0-.46-2.6,3.57,3.57,0,0,0-1.29-1.61,3.77,3.77,0,0,0-3.89,0,3.57,3.57,0,0,0-1.29,1.61,6.44,6.44,0,0,0-.46,2.6,6.44,6.44,0,0,0,.46,2.6,3.49,3.49,0,0,0,1.29,1.6,3.73,3.73,0,0,0,3.89,0,3.54,3.54,0,0,0,1.29-1.6,6.4,6.4,0,0,0,.42-2.6Zm13.28-3.09a1.84,1.84,0,0,0-.73-1.34,3,3,0,0,0-1.76-.47,3.46,3.46,0,0,0-1.27.21,1.83,1.83,0,0,0-.79.58,1.37,1.37,0,0,0-.27.83,1.2,1.2,0,0,0,.16.69,1.74,1.74,0,0,0,.51.5,3.3,3.3,0,0,0,.73.36,6.66,6.66,0,0,0,.9.26l1.31.31a8.86,8.86,0,0,1,1.74.57,5.54,5.54,0,0,1,1.38.87,3.9,3.9,0,0,1,.91,1.22,4.08,4.08,0,0,1,.33,1.62,4,4,0,0,1-.68,2.31,4.4,4.4,0,0,1-1.93,1.51,7.67,7.67,0,0,1-3,.54,8.05,8.05,0,0,1-3.07-.54,4.5,4.5,0,0,1-2-1.61,4.72,4.72,0,0,1-.76-2.63h3a2.14,2.14,0,0,0,.42,1.22,2.21,2.21,0,0,0,1,.73,4.15,4.15,0,0,0,2.78,0,2,2,0,0,0,.9-.63,1.42,1.42,0,0,0,.32-.93,1.25,1.25,0,0,0-.28-.83,2.26,2.26,0,0,0-.84-.56A9.21,9.21,0,0,0,122,19l-1.58-.4a6.63,6.63,0,0,1-2.91-1.4,3.26,3.26,0,0,1-1.06-2.56,3.81,3.81,0,0,1,.71-2.31,4.8,4.8,0,0,1,2-1.54,7,7,0,0,1,2.85-.55,6.87,6.87,0,0,1,2.83.55,4.42,4.42,0,0,1,1.88,1.54,4.14,4.14,0,0,1,.7,2.29Zm8.28-4.18V25h-3.07V10.46Zm2,2.53V10.46h12V13H142.1V25h-3V13Zm13.9,12V10.46h9.8V13h-6.72v3.47h6.22V19h-6.22v3.47h6.75V25Z" fill="#222222"/>
</svg>
