<svg width="50" height="50" viewBox="0 0 50 50" fill="none" xmlns="http://www.w3.org/2000/svg">
	<path fill-rule="evenodd" clip-rule="evenodd" d="M25 0C25.5523 0 26 0.447715 26 1V1.88197L33.4472 5.60557C33.6294 5.69665 33.7716 5.83582 33.8662 6H48C49.1046 6 50 6.89543 50 8V10C50 11.1046 49.1046 12 48 12V39C48 40.1046 47.1046 41 46 41H26V44.382L33.4472 48.1056C33.9412 48.3526 34.1414 48.9532 33.8944 49.4472C33.6474 49.9412 33.0468 50.1414 32.5528 49.8944L26 46.618V49C26 49.5523 25.5523 50 25 50C24.4477 50 24 49.5523 24 49V46.618L17.4472 49.8944C16.9532 50.1414 16.3526 49.9412 16.1056 49.4472C15.8586 48.9532 16.0588 48.3526 16.5528 48.1056L24 44.382V41H4C2.89543 41 2 40.1046 2 39L2 12C0.895428 12 0 11.1046 0 10V8C0 6.89543 0.895431 6 2 6H16.1338C16.2284 5.83582 16.3706 5.69665 16.5528 5.60557L24 1.88197V1C24 0.447715 24.4477 0 25 0ZM26 6V4.11803L29.7639 6H26ZM20.2361 6L24 4.11803V6H20.2361ZM2 8H25H48L48 10H46H4H2V8ZM25 39H46V12L4 12V39H25ZM9 17C9 16.4477 8.55229 16 8 16C7.44772 16 7 16.4477 7 17V34C7 34.5523 7.44772 35 8 35H12H16H19H23H25C25.5523 35 26 34.5523 26 34C26 33.4477 25.5523 33 25 33H24V21C24 20.4477 23.5523 20 23 20H19C18.4477 20 18 20.4477 18 21V33H17V25C17 24.4477 16.5523 24 16 24H12C11.4477 24 11 24.4477 11 25V33H9V17ZM20 33H22V22H20V33ZM15 26V33H13V26H15ZM34 17.083C31.1623 17.559 29 20.027 29 23C29 26.3137 31.6863 29 35 29C36.2948 29 37.4939 28.5898 38.4743 27.8924L34.2929 23.711C34.1054 23.5235 34 23.2691 34 23.0039V17.083ZM35 15C30.5817 15 27 18.5817 27 23C27 27.4183 30.5817 31 35 31C39.4183 31 43 27.4183 43 23C43 18.5817 39.4183 15 35 15ZM39.8891 26.4788C40.5886 25.4976 41 24.2968 41 23C41 20.027 38.8377 17.559 36 17.083V22.5897L39.8891 26.4788ZM29 34C29 33.4477 29.4477 33 30 33H33C33.5523 33 34 33.4477 34 34C34 34.5523 33.5523 35 33 35H30C29.4477 35 29 34.5523 29 34ZM37 33C36.4477 33 36 33.4477 36 34C36 34.5523 36.4477 35 37 35H40C40.5523 35 41 34.5523 41 34C41 33.4477 40.5523 33 40 33H37Z" fill="#365EDC"></path>
	<rect opacity="0.1" x="2" y="8" width="46" height="2" fill="#365EDC"></rect>
	<rect opacity="0.1" x="12" y="25" width="4" height="9" fill="#365EDC"></rect>
	<rect opacity="0.1" x="19" y="21" width="4" height="12" fill="#365EDC"></rect>
	<path opacity="0.1" fill-rule="evenodd" clip-rule="evenodd" d="M35 30V39H46V12H35V16C38.866 16 42 19.134 42 23C42 26.866 38.866 30 35 30Z" fill="#365EDC"></path>
</svg>