<svg width="50" height="50" viewBox="0 0 50 50" fill="none" xmlns="http://www.w3.org/2000/svg">
	<path fill-rule="evenodd" clip-rule="evenodd" d="M13.234 22.4569C12.5094 21.8888 11.4906 21.8888 10.766 22.4569L2.76601 28.7291C2.28245 29.1082 2 29.6885 2 30.303V46C2 47.1046 2.89543 48 4 48H20C21.1046 48 22 47.1046 22 46V30.303C22 29.6885 21.7176 29.1082 21.234 28.7291L13.234 22.4569ZM9.532 20.883C10.9812 19.7468 13.0188 19.7468 14.468 20.883L22.468 27.1551C23.4351 27.9134 24 29.0741 24 30.303V46C24 48.2091 22.2091 50 20 50H4C1.79086 50 0 48.2091 0 46V30.303C0 29.0741 0.564899 27.9134 1.53201 27.1551L9.532 20.883Z" fill="#365EDC"></path>
	<circle cx="12" cy="27" r="1" fill="#365EDC"></circle>
	<path fill-rule="evenodd" clip-rule="evenodd" d="M7.5 32C6.67157 32 6 32.6716 6 33.5C6 34.3284 6.67157 35 7.5 35C8.32843 35 9 34.3284 9 33.5C9 32.6716 8.32843 32 7.5 32ZM4 33.5C4 31.567 5.567 30 7.5 30C9.433 30 11 31.567 11 33.5C11 35.433 9.433 37 7.5 37C5.567 37 4 35.433 4 33.5ZM16.5 40C15.6716 40 15 40.6716 15 41.5C15 42.3284 15.6716 43 16.5 43C17.3284 43 18 42.3284 18 41.5C18 40.6716 17.3284 40 16.5 40ZM13 41.5C13 39.567 14.567 38 16.5 38C18.433 38 20 39.567 20 41.5C20 43.433 18.433 45 16.5 45C14.567 45 13 43.433 13 41.5ZM17.7399 32.6727C18.1114 32.264 18.0813 31.6316 17.6727 31.2601C17.264 30.8886 16.6315 30.9187 16.26 31.3273L6.26004 42.3273C5.88853 42.736 5.91865 43.3684 6.32731 43.74C6.73597 44.1115 7.36841 44.0813 7.73992 43.6727L17.7399 32.6727Z" fill="#365EDC"></path>
	<path opacity="0.1" fill-rule="evenodd" clip-rule="evenodd" d="M14.6643 16.716C14.8056 15.7312 15.6492 15 16.6441 15H40.1256C41.1204 15 41.964 15.7312 42.1053 16.7159L45.9796 43.7159C46.1525 44.9212 45.2175 46 43.9999 46H25.9991V30.2851C25.9991 28.4621 25.1702 26.7379 23.7465 25.5993L15.6892 19.1556C15.2944 18.8398 14.8697 18.581 14.4258 18.379L14.6643 16.716Z" fill="#365EDC"></path>
	<path fill-rule="evenodd" clip-rule="evenodd" d="M28.5 0C23.8056 0 20 3.80558 20 8.5V11H15.8955C13.415 11 11.3095 12.8185 10.9486 15.2726L10.5435 18.0282C11.2125 17.8611 11.9044 17.811 12.5871 17.8779L12.9274 15.5636C13.1439 14.0911 14.4072 13 15.8955 13H20V18C20 18.5523 20.4477 19 21 19C21.5523 19 22 18.5523 22 18V13H35V18C35 18.5523 35.4477 19 36 19C36.5523 19 37 18.5523 37 18V13H40.7841C42.275 13 43.5397 14.0949 43.7531 15.5704L47.9488 44.5704C48.2105 46.3794 46.8075 48 44.9797 48H25.6586C25.3952 48.7452 24.9888 49.4229 24.4723 50H44.9797C48.026 50 50.3644 47.299 49.9282 44.2841L45.7325 15.2841C45.3767 12.8248 43.2689 11 40.7841 11H37V8.5C37 3.80558 33.1944 0 28.5 0ZM35 11V8.5C35 4.91015 32.0899 2 28.5 2C24.9101 2 22 4.91015 22 8.5V11H35Z" fill="#365EDC"></path>
	<path opacity="0.1" fill-rule="evenodd" clip-rule="evenodd" d="M12 49H21C22.1046 49 23 48.1046 23 47V30.7006C23 29.7529 22.5522 28.8609 21.7922 28.2948L13.7922 22.3351C13.2605 21.939 12.6302 21.7409 12 21.7409V49Z" fill="#365EDC"></path>
</svg>