<svg width="50" height="50" viewBox="0 0 50 50" fill="none" xmlns="http://www.w3.org/2000/svg">
	<circle cx="30.5" cy="9.5" r="1.5" fill="#365EDC"></circle>
	<circle cx="36.5" cy="9.5" r="1.5" fill="#365EDC"></circle>
	<circle cx="42.5" cy="9.5" r="1.5" fill="#365EDC"></circle>
	<path fill-rule="evenodd" clip-rule="evenodd" d="M23 5C23 2.23858 25.2386 0 28 0H45C47.7614 0 50 2.23858 50 5V14C50 16.7614 47.7614 19 45 19H37.2222L33.6069 22.5596C33.3203 22.8418 32.9342 23 32.532 23C31.6859 23 31 22.3141 31 21.468V19H28C25.2386 19 23 16.7614 23 14V5ZM28 2C26.3431 2 25 3.34315 25 5V14C25 15.6569 26.3431 17 28 17H31C32.1046 17 33 17.8954 33 19V20.3505L35.819 17.5749C36.1931 17.2065 36.6971 17 37.2222 17H45C46.6569 17 48 15.6569 48 14V5C48 3.34315 46.6569 2 45 2H28ZM41 31C41 30.4477 40.5523 30 40 30H32C31.4477 30 31 30.4477 31 31C31 31.5523 31.4477 32 32 32H40C40.5523 32 41 31.5523 41 31ZM40 28C40.5523 28 41 27.5523 41 27C41 26.4477 40.5523 26 40 26H32C31.4477 26 31 26.4477 31 27C31 27.5523 31.4477 28 32 28H40ZM36 35C36 35.5523 35.5523 36 35 36H32C31.4477 36 31 35.5523 31 35C31 34.4477 31.4477 34 32 34H35C35.5523 34 36 34.4477 36 35ZM9.16666 42H9C8.44772 42 8 41.5523 8 41V39.4444C8 38.1111 8.88 36.9378 10.16 36.5644L15.0028 35.152C15.0009 35.1015 15 35.0509 15 35V33.5632C13.8811 32.5868 13.1382 31.1902 13.0174 29.6195C11.6865 28.5613 11.6658 26.4829 13 25.4175V25C13 21.6863 15.6863 19 19 19C21.9899 19 24.469 21.187 24.925 24.0485C24.9948 24.2187 25.0178 24.4076 24.9865 24.594C24.9954 24.7282 25 24.8636 25 25V25.4204C26.3992 26.4596 26.3614 28.6088 24.9811 29.6431C24.8559 31.2056 24.1144 32.5943 23 33.566V35C23 35.0509 22.9991 35.1015 22.9972 35.152L27.84 36.5644C29.12 36.9378 30 38.1111 30 39.4444V40H41.1667C41.7189 40 42.1667 40.4477 42.1667 41C42.1667 41.5523 41.7189 42 41.1667 42L29 42H9.16666ZM22.874 24C22.4299 22.2748 20.8638 21 19 21C19 22.6569 20.3431 24 22 24H22.874ZM17.0267 21.5198C16.1538 22.0159 15.4857 22.8308 15.1812 23.8063C15.43 23.7801 15.6979 23.7331 15.9651 23.6568C16.5294 23.4958 17.0143 23.2283 17.345 22.8287C17.1829 22.4164 17.0739 21.9772 17.0267 21.5198ZM18.4679 24.539C19.3725 25.4418 20.621 26 22 26H22.9091C22.9385 26 22.9692 25.9993 23.0012 25.9979C23.021 26.4099 23.2739 26.7768 23.6558 26.9404C24.142 27.1488 24.1798 27.8841 23.6424 28.1234C23.2562 28.2954 23 28.6803 23 29.1124V29.1708C23 31.2856 21.2856 33 19.1708 33H19H18.8344C16.7167 33 15 31.2833 15 29.1656V29.1114C15 28.6976 14.765 28.3229 14.3991 28.1404C13.8723 27.8776 13.8884 27.137 14.3926 26.89C14.7643 26.7078 15 26.3299 15 25.9159V25.8253C15.4638 25.8028 15.9872 25.7304 16.514 25.58C17.1652 25.3942 17.8711 25.0739 18.4679 24.539ZM21 34.7072C20.4247 34.8972 19.8098 35 19.1708 35H19H18.8344C18.1935 35 17.5768 34.8967 17 34.7058V35C17 36.1046 17.8954 37 19 37C20.1046 37 21 36.1046 21 35V34.7072ZM28 40V39.4444C28 39 27.7067 38.6089 27.28 38.4844L22.4245 37.0682C21.7237 38.2261 20.4522 39 19 39C17.5478 39 16.2763 38.2261 15.5755 37.0683L10.72 38.4844C10.2933 38.6089 10 39 10 39.4444V40H28Z" fill="#365EDC"></path>
	<path opacity="0.1" d="M12.0322 39.2879L15.7522 38.3235C16.512 38.1265 17.2995 38.4213 17.9364 38.88C18.9932 39.6411 20.5355 40.1077 22.0887 38.9081C22.7099 38.4283 23.488 38.1265 24.2478 38.3235L27.9678 39.2879C28.5756 39.4455 29 39.994 29 40.6219C29 41.383 28.383 42 27.6219 42H12.3781C11.617 42 11 41.383 11 40.6219C11 39.994 11.4244 39.4455 12.0322 39.2879Z" fill="#365EDC"></path>
	<path fill-rule="evenodd" clip-rule="evenodd" d="M21 14H8C5.23857 14 3 16.2386 3 19V44H1H0V45V47C0 48.6569 1.34315 50 3 50H47C48.6569 50 50 48.6569 50 47V45V44H49H47V21H45V44H5V19C5 17.3431 6.34315 16 8 16H21V14ZM2 46V47C2 47.5523 2.44772 48 3 48H19.382L18.382 46H2ZM47 48C47.5523 48 48 47.5523 48 47V46H31.618L30.618 48H47ZM28.382 48H21.618L20.618 46H29.382L28.382 48Z" fill="#365EDC"></path>
	<path opacity="0.1" d="M36 8C36 5.79086 37.7909 4 40 4H48V15C48 16.6569 46.6569 18 45 18H36V8Z" fill="#365EDC"></path>
	<rect opacity="0.1" x="1" y="46" width="19" height="2" fill="#365EDC"></rect>
	<rect opacity="0.1" x="30" y="46" width="19" height="2" fill="#365EDC"></rect>
	<path opacity="0.1" d="M18.1667 21C14.8333 21 14 24.242 14 25.8629C14.7357 26.0619 16.552 25.4797 18.1667 24.242C19.1667 26.1871 22.4722 26.1331 24 25.8629L23.5833 23.0262C23.1667 22.3508 21.5 21 18.1667 21Z" fill="#365EDC"></path>
</svg>