<svg width="50" height="50" viewBox="0 0 50 50" fill="none" xmlns="http://www.w3.org/2000/svg">
	<path fill-rule="evenodd" clip-rule="evenodd" d="M7 6C7 2.68629 9.68629 0 13 0H45C47.7614 0 50 2.23858 50 5V11C50 11.5523 49.5523 12 49 12H43V45.0001C43 47.7615 40.7615 50 38.0001 50H7C3.13401 50 0 46.866 0 43V40C0 39.4477 0.447715 39 1 39H7V37C7 36.4477 7.44772 36 8 36C8.55228 36 9 36.4477 9 37V39H34.0002C34.5525 39 35.0002 39.4477 35.0002 40V45.0001C35.0002 46.6569 36.3433 48 38.0001 48C39.6569 48 41 46.6569 41 45.0001V11C41 10.4477 41.4477 10 42 10H48V5C48 3.34315 46.6569 2 45 2H13C10.7909 2 9 3.79086 9 6V7C9 7.55228 8.55228 8 8 8C7.44772 8 7 7.55228 7 7V6ZM33.9998 48C33.3721 47.1644 33.0002 46.1257 33.0002 45.0001V41H8H2V43C2 45.7614 4.23858 48 7 48H33.9998ZM26 24C26 23.4477 26.4477 23 27 23H36C36.5523 23 37 23.4477 37 24C37 24.5523 36.5523 25 36 25H27C26.4477 25 26 24.5523 26 24ZM27 18C26.4477 18 26 18.4477 26 19C26 19.5523 26.4477 20 27 20H36C36.5523 20 37 19.5523 37 19C37 18.4477 36.5523 18 36 18H27ZM26 14C26 13.4477 26.4477 13 27 13H36C36.5523 13 37 13.4477 37 14C37 14.5523 36.5523 15 36 15H27C26.4477 15 26 14.5523 26 14ZM27 28C26.4477 28 26 28.4477 26 29C26 29.5523 26.4477 30 27 30H32C32.5523 30 33 29.5523 33 29C33 28.4477 32.5523 28 32 28H27ZM16.7071 17.2929C17.0976 17.6834 17.0976 18.3166 16.7071 18.7071L10.7071 24.7071C10.3166 25.0976 9.68342 25.0976 9.29289 24.7071L6.29289 21.7071C5.90237 21.3166 5.90237 20.6834 6.29289 20.2929C6.68342 19.9024 7.31658 19.9024 7.70711 20.2929L10 22.5858L15.2929 17.2929C15.6834 16.9024 16.3166 16.9024 16.7071 17.2929ZM11.3354 9.05793C11.1185 8.98069 10.8815 8.98069 10.6646 9.05793L0.664582 12.6184C0.266114 12.7602 0 13.1375 0 13.5604V19.0748C0 25.3788 3.48849 31.1653 9.06335 34.1084L10.5331 34.8843C10.8253 35.0386 11.1747 35.0386 11.4669 34.8843L12.9367 34.1084C18.5115 31.1653 22 25.3788 22 19.0748V13.5604C22 13.1375 21.7339 12.7602 21.3354 12.6184L11.3354 9.05793ZM2 19.0748V14.2659L11 11.0615L20 14.2659V19.0748C20 24.6372 16.9219 29.7429 12.0029 32.3397L11 32.8692L9.99707 32.3397C5.07808 29.7429 2 24.6372 2 19.0748Z" fill="#365EDC"></path>
	<path opacity="0.1" fill-rule="evenodd" clip-rule="evenodd" d="M31.0454 43H0.824786C0.824786 46.346 3.53729 49.0585 6.88333 49.0585H34.3125V48.8875C32.4266 48.3515 31.0454 46.6163 31.0454 44.5585V43Z" fill="#365EDC"></path>
	<path opacity="0.1" d="M43 2H36C33.2386 2 31 4.23858 31 7V39.9298H34.2542V45.7018L36.2881 49H39.9492L41.9831 46.9386V5.29825L43 2Z" fill="#365EDC"></path>
	<path opacity="0.1" d="M11 34V13L21 16.3158V24.3077L16.8333 30.7692L11 34Z" fill="#365EDC"></path>
	<path fill-rule="evenodd" clip-rule="evenodd" d="M43 5C43 3.34315 44.3431 2 46 2V1H42.9995C41.7853 1.91223 41 3.3644 41 5V11C41 11.5523 41.4477 12 42 12C42.5523 12 43 11.5523 43 11V5Z" fill="#365EDC"></path>
</svg>